<svg xmlns="http://www.w3.org/2000/svg" width="46.731" height="51.773" viewBox="0 0 46.731 51.773">
  <g id="Group_10" data-name="Group 10" transform="translate(-107 -370.948)">
    <path id="Path_36" data-name="Path 36" d="M137.524,387.048l-11.048,7.429,7.238,5.9-18.567,14.643,2.309,1.333,20.257-15.977-7.238-5.9,11.048-7.429L125.74,372.52l-2.458,1.419Z" fill="#fff"/>
    <path id="Path_37" data-name="Path 37" d="M110.52,412.353l.889.512,15.829-12.484-7.238-5.9,11.048-7.428L119.3,376.237l-8.782,5.071a7.04,7.04,0,0,0-3.52,6.1v18.85A7.042,7.042,0,0,0,110.52,412.353Z" fill="#fff"/>
    <path id="Path_38" data-name="Path 38" d="M150.211,381.308l-16.325-9.425a7.025,7.025,0,0,0-3.377-.935L148,387.048l-11.048,7.428,7.238,5.9L121.2,418.516l5.649,3.262a7.045,7.045,0,0,0,7.041,0l16.325-9.425a7.042,7.042,0,0,0,3.52-6.1V387.4A7.04,7.04,0,0,0,150.211,381.308Z" fill="#fff"/>
  </g>
</svg>
