<?xml version="1.0" encoding="utf-8"?>
<!-- Generator: Adobe Illustrator 22.0.0, SVG Export Plug-In . SVG Version: 6.00 Build 0)  -->
<svg version="1.1" id="Layer_1" xmlns="http://www.w3.org/2000/svg" xmlns:xlink="http://www.w3.org/1999/xlink" x="0px" y="0px"
	 viewBox="0 0 83.3 93.7" style="enable-background:new 0 0 83.3 93.7;" xml:space="preserve">
<style type="text/css">
	.st0{fill:#FFFFFF;}
</style>
<g>
	<path class="st0" d="M80,21L46.5,1.7c-2.5-1.4-5.6-1.4-8.1,0l-1.9,1.1C37.4,3.7,38,4.9,38,6.3c0,2.3-1.5,4.2-3.6,4.8L30,41.2
		c-0.3,1.5,0.2,2.5,1.8,2.5c1.6,0,2.5-1,2.8-2.5l1.5-8.8h4.2l-1.5,8.8c-0.8,4.4-4,6.5-7.7,6.5c-3.7,0-6.1-2.2-5.3-6.5l4.5-30.7
		c-1.1-0.7-1.8-1.7-2.2-3L4.8,21c-2.5,1.4-4.1,4.1-4.1,7V59c0.1,0,0.1,0,0.1,0c2.3,0,4.3,1.6,4.8,3.7h9l0,0c0.8,0,1.4-0.4,1.4-1.1
		c0-2.2-6.3-1.7-6.3-6.1c0-3.2,2.6-5,6.1-5c3.4,0,5.8,1.8,5.5,4.7h-4.5c0.2-0.9-0.3-1.4-1.2-1.4c-0.8,0-1.3,0.4-1.3,1.1
		c0,2.1,6.3,2,6.3,6.4c0,2.7-2.2,4.7-5.9,4.7v0H5.5c-0.8,1.7-2.4,2.9-4.4,3c0.6,2,1.9,3.8,3.7,4.8l33.5,19.4c2.5,1.4,5.6,1.4,8.1,0
		l27.9-16.1c-1.2-0.9-1.9-2.3-1.9-3.9c0-1.6,0.8-3,2-4l-4.3-24.1h-5.4l-1.2,2.5h-4.4l8.2-15.2h4.9l6.5,35.9c1.8,0.4,3.2,1.8,3.7,3.6
		c1.1-1.4,1.8-3.2,1.8-5.1V28C84.1,25.1,82.5,22.5,80,21z M15.6,47.7c-4.7,0-7.1-3.2-6.3-7.7c0.8-4.5,4.4-7.7,9-7.7
		c3.8,0,6.1,2,6.1,5.1h-4.5c-0.3-0.8-1.1-1.2-2.3-1.2c-2.1,0-3.7,1.5-4.1,3.8c-0.5,2.6,0.6,4,3.1,4c1.5,0,2.7-0.7,3.5-2h-4.2l0.5-3
		h7.9L23.6,43C22.3,45.2,19.5,47.7,15.6,47.7z M33.8,54h-5.5l-0.4,2.5h4.8l-0.6,3.2h-4.8l-0.5,2.8h5.5l-0.6,3.4H22l2.7-15.2h9.7
		L33.8,54z M43.3,65.8h-5.4l-2.6-15.2h4.5l1.5,10.9l5.4-10.9h4.5L43.3,65.8z M54.7,63.8c-0.2,1.2-1.4,2.2-2.8,2.2
		c-1.5,0-2.3-0.9-2.1-2.2c0.2-1.2,1.4-2.2,2.9-2.2C54.1,61.6,54.9,62.6,54.7,63.8z M57.7,47.6h-4.2l1.5-8.4l-4.4,8.4h-3.5l-1.4-8.4
		l-1.5,8.4H40l2.7-15.2h5.1l2.1,9.8l5.4-9.8h5.1L57.7,47.6z"/>
	<polygon class="st0" points="69.6,41.9 68.8,37 66.4,41.9 	"/>
</g>
</svg>
