<svg xmlns="http://www.w3.org/2000/svg" width="51.323" height="56.871" viewBox="0 0 51.323 56.871">
  <path id="Path_39" data-name="Path 39" d="M737.124,161.328,719.2,150.977a7.73,7.73,0,0,0-7.733,0l-17.929,10.351a7.731,7.731,0,0,0-3.866,6.7v20.7a7.731,7.731,0,0,0,3.866,6.7l17.929,10.352a7.735,7.735,0,0,0,7.733,0l17.929-10.352a7.731,7.731,0,0,0,3.866-6.7v-20.7A7.731,7.731,0,0,0,737.124,161.328Zm-29.555,3.127a15.561,15.561,0,0,1,5.8-1.89c.663-.079,1.333-.1,2-.15a15.882,15.882,0,0,1,6.806,1.574.934.934,0,0,1,.479.454.806.806,0,0,1-.142.625c-.18.242-.459.219-.746.111a26.644,26.644,0,0,0-2.957-1.056,14.421,14.421,0,0,0-10.473,1.336c-.06.032-.117.071-.179.1a.628.628,0,1,1-.585-1.1Zm15.225,15.935c0,.464.012.929,0,1.393a.619.619,0,1,1-1.234-.052,15.437,15.437,0,0,0-.252-4.077c-1.013-4-4.968-6.169-8.518-4.458-.461.223-.808.142-.986-.219s-.022-.676.438-.907A7.1,7.1,0,0,1,721.2,174.5a8.707,8.707,0,0,1,1.585,4.665c.023.408,0,.819,0,1.229Zm-1.711-9.4c-.225.3-.552.336-.943.082a8.77,8.77,0,0,0-13.194,4.747,10.166,10.166,0,0,0-.388,2.615c-.035.816-.061,1.633-.1,2.45a.665.665,0,0,1-.669.683.639.639,0,0,1-.59-.667c.06-1.251.082-2.508.208-3.753a10.012,10.012,0,0,1,8.1-8.6c.6-.1,1.218-.143,1.527-.178a10.276,10.276,0,0,1,5.789,1.653C721.236,170.3,721.328,170.666,721.083,170.994ZM705,172.833c-.059.108-.111.22-.174.325a.61.61,0,0,1-.827.306.6.6,0,0,1-.276-.865,20.48,20.48,0,0,1,1.528-2.367,12.717,12.717,0,0,1,8.263-4.7c.619-.1.995.137.989.6-.005.338-.233.564-.636.617A11.729,11.729,0,0,0,705,172.833Zm-4.372,5.613a.626.626,0,0,1-.654.6.61.61,0,0,1-.588-.616c-.014-.232,0-.465,0-.764a15.944,15.944,0,0,1,5.484-11.313,2.582,2.582,0,0,1,.222-.182.621.621,0,1,1,.8.947c-.57.569-1.185,1.1-1.707,1.709a14.441,14.441,0,0,0-3.551,9.292C700.635,178.228,700.642,178.338,700.63,178.446Zm.519,7.086c-.295-.181-.34-.513-.181-.9a24.166,24.166,0,0,0,1.15-3c.238-.925.114-4.628.582-6.207.134-.451.388-.664.777-.574a.6.6,0,0,1,.434.833,13.9,13.9,0,0,0-.311,4.137,10.829,10.829,0,0,1-1.571,5.476A.612.612,0,0,1,701.149,185.532ZM703.6,189c-.231-.166-.479-.253-.545-.414a.957.957,0,0,1,.013-.681c.408-.9.89-1.775,1.279-2.687a11.382,11.382,0,0,0,.49-1.681c.127-.494.375-.716.778-.645.386.069.551.389.451.891a14.173,14.173,0,0,1-1.91,4.705A2.976,2.976,0,0,1,703.6,189Zm2.654,1.8a.623.623,0,1,1-.921-.835,11.858,11.858,0,0,0,2.68-6.314c.152-1.092.179-2.2.263-3.3a12.773,12.773,0,0,1,.323-3.947,6.022,6.022,0,0,1,1.064-2.2.619.619,0,0,1,.894-.191.612.612,0,0,1,.13.9,6.5,6.5,0,0,0-1.18,3.809c-.071,1.186-.021,2.378-.092,3.564a14.58,14.58,0,0,1-2.487,7.686A7.7,7.7,0,0,1,706.259,190.806Zm3.175,1.737c-.3.417-.628.525-.959.3s-.377-.58-.077-1a15.3,15.3,0,0,0,2.753-8.1c.031-.464.286-.741.661-.727.4.014.611.315.582.814,0,.054-.007.109-.018.28A16.269,16.269,0,0,1,709.434,192.543Zm4.651-1.309a24.494,24.494,0,0,1-1.342,2.614.777.777,0,0,1-.64.289c-.183-.021-.384-.266-.485-.461a.623.623,0,0,1,.1-.489,21.8,21.8,0,0,0,2.806-8.9,33.5,33.5,0,0,0,.19-5.924.662.662,0,0,1,.558-.773c.352-.04.606.176.638.632.067.979.1,1.96.121,2.479A29.5,29.5,0,0,1,714.085,191.234Zm2.719,2.637a.632.632,0,1,1-1.136-.516,30.79,30.79,0,0,0,2.054-6.37,26.094,26.094,0,0,0,.494-8.1,4.219,4.219,0,0,0-1.023-2.366A2.543,2.543,0,0,0,713,176.9a3.639,3.639,0,0,0-.534,1.9c-.01.668-.01,1.335-.015,2,0,.456-.253.757-.626.76a.623.623,0,0,1-.614-.715,20.08,20.08,0,0,1,.208-3.336,3.907,3.907,0,0,1,4.34-3.151,3.806,3.806,0,0,1,2.705,1.739,5.833,5.833,0,0,1,1.034,3.061c.054.694.084,1.39.107,1.775A32.379,32.379,0,0,1,716.8,193.871Zm3.678-.705a1.928,1.928,0,0,1-.067.194.622.622,0,1,1-1.179-.393c.359-1.273.768-2.534,1.072-3.819.379-1.6.676-3.228,1-4.844a.629.629,0,0,1,.7-.584.716.716,0,0,1,.6.71c-.27,1.323-.5,2.655-.82,3.964C721.4,189.995,720.922,191.576,720.482,193.166Zm3.461-1.726c-.037.1-.073.206-.117.306-.183.415-.489.571-.838.432a.641.641,0,0,1-.331-.886c.306-.975.644-1.942.893-2.931a35.358,35.358,0,0,0,1.03-9.334,9.242,9.242,0,0,0-1.978-5.532c-.091-.119-.185-.237-.27-.361a.621.621,0,0,1,.077-.91.608.608,0,0,1,.924.166,11.817,11.817,0,0,1,1.924,3.4,11.639,11.639,0,0,1,.576,4.232A35.481,35.481,0,0,1,723.943,191.44Zm3.891-3.7c-.036.2-.077.4-.125.6a.627.627,0,1,1-1.218-.271c.155-.831.35-1.654.491-2.487.175-1.035.31-2.076.465-3.114a.631.631,0,0,1,.672-.618.78.78,0,0,1,.644.741Q728.3,185.166,727.834,187.741Zm.958-8.693c0,.205.009.41,0,.614a.563.563,0,0,1-.576.576.519.519,0,0,1-.6-.48c-.052-.487-.079-.977-.125-1.466-.5-5.372-4.372-10.144-9.449-11.315-.372-.086-.75-.142-1.124-.219a.6.6,0,0,1-.546-.72.643.643,0,0,1,.8-.5A12.006,12.006,0,0,1,721.7,167.1a14.26,14.26,0,0,1,6.915,10.237c.1.564.137,1.137.2,1.706Zm2.48-.655a.624.624,0,1,1-1.248.008c-.035-.5-.031-1.01-.089-1.511a14.664,14.664,0,0,0-5.72-10.206c-.053-.042-.112-.077-.164-.121a.63.63,0,0,1-.156-.9.6.6,0,0,1,.9-.088,26.3,26.3,0,0,1,2.436,2.241,15.9,15.9,0,0,1,4.039,10.014C731.273,177.956,731.281,178.175,731.272,178.393Z" transform="translate(-689.667 -149.941)" fill="#fff"/>
</svg>
