<?xml version="1.0" encoding="utf-8"?>
<!-- Generator: Adobe Illustrator 22.0.0, SVG Export Plug-In . SVG Version: 6.00 Build 0)  -->
<svg version="1.1" id="Layer_1" xmlns="http://www.w3.org/2000/svg" xmlns:xlink="http://www.w3.org/1999/xlink" x="0px" y="0px"
	 viewBox="0 0 60.4 60.4" style="enable-background:new 0 0 60.4 60.4;" xml:space="preserve">
<style type="text/css">
	.st0{fill:#FFFFFF;}
	.st1{fill:#FF0044;}
</style>
<g id="Group_9" transform="translate(-11.42 -9.626)">
	<g id="Group_8">
		<g id="Group_1">
			<path id="Path_1" class="st0" d="M19.8,33.4l-0.2,0.8l-3.8,0.9l3.2,2.3l-0.2,0.8l-4.5-0.9l0.1-0.7l3,0.6l-2.8-2l0.1-0.5l3.3-0.8
				l-3-0.6l0.1-0.7L19.8,33.4z"/>
			<path id="Path_2" class="st0" d="M15.4,43.1l-0.1-1.9l-0.9-0.3l-0.1-0.8l4.6,1.3l0.1,0.9l-4.4,1.9l-0.1-0.8L15.4,43.1z M18.1,42
				l-2.2-0.6l0.1,1.5L18.1,42z"/>
			<path id="Path_3" class="st0" d="M20.6,49.2l-4.3,1.4l-0.2-0.7l2.5-3.2l-3.2,1.1l-0.2-0.7l4.3-1.4l0.2,0.7l-2.5,3.2l3.2-1.1
				L20.6,49.2z"/>
			<path id="Path_4" class="st0" d="M22.6,55.2l-0.5-0.8c0.2-0.4,0.2-1-0.1-1.4c-0.5-0.7-1.6-0.9-2.3-0.4c-0.7,0.5-0.9,1.4-0.5,2.1
				c0.4,0.6,1.2,0.9,1.8,0.5L20.2,54l0.5-0.3l1.4,2.1l-0.5,0.3c-1,0.5-2.3,0.1-2.9-0.8c-0.7-1.1-0.4-2.5,0.7-3.2
				c1.1-0.7,2.5-0.4,3.2,0.7C23.2,53.5,23.2,54.5,22.6,55.2z"/>
			<path id="Path_5" class="st0" d="M26.2,57c0.6,0.4,0.8,1.3,0.4,1.9c0,0.1-0.1,0.1-0.1,0.1c-0.4,0.5-1.1,0.6-1.7,0.2l-0.5,2.1
				l-0.6-0.6l0.5-2l-0.4-0.4l-1.2,1.3l-0.5-0.5l3.1-3.3L26.2,57z M25.8,57.5l-0.6-0.6l-1,1.1l0.6,0.6c0.3,0.3,0.7,0.4,1,0.1
				c0,0,0.1-0.1,0.1-0.1c0.3-0.3,0.3-0.7,0-1C25.9,57.5,25.8,57.5,25.8,57.5z"/>
			<path id="Path_6" class="st0" d="M29,59.3l0.6,0.4l-1.4,2.5c-0.3,0.5-0.1,1.1,0.4,1.4c0.5,0.3,1.1,0.1,1.4-0.4c0,0,0,0,0,0
				l1.4-2.5l0.6,0.4l-1.4,2.5c-0.4,0.8-1.4,1.1-2.2,0.7c-0.1,0-0.1-0.1-0.2-0.1c-0.8-0.4-1.2-1.3-0.8-2.1c0-0.1,0.1-0.1,0.1-0.2
				L29,59.3z"/>
			<path id="Path_7" class="st0" d="M34.7,64.9l-0.8-0.2l-0.5,1.8l-0.7-0.2l1.3-4.4l1.5,0.4c1,0.3,1.4,1,1.2,1.8
				c-0.2,0.7-1,1.1-1.7,0.9C34.8,64.9,34.7,64.9,34.7,64.9z M34.8,64.3c0.6,0.2,0.9,0,1-0.5s0-0.8-0.6-1l-0.8-0.2L34,64L34.8,64.3z"
				/>
			<path id="Path_8" class="st0" d="M41.2,66.8l-1.9-0.1L39,67.6l-0.8,0l1.9-4.5l0.9,0l1.4,4.6l-0.8,0L41.2,66.8z M40.4,64l-0.9,2.1
				l1.5,0.1L40.4,64z"/>
			<path id="Path_9" class="st0" d="M47.3,62.5l0.7-0.2l1.2,4.4l-0.7,0.2L47.3,62.5z"/>
			<path id="Path_10" class="st0" d="M53.3,60.1l2,4.1l-0.7,0.3l-3.5-2.1l1.5,3.1L52,65.8l-2-4.1l0.7-0.3l3.5,2.1l-1.5-3.1
				L53.3,60.1z"/>
			<path id="Path_11" class="st0" d="M54.9,59.1l2.5-2l0.4,0.5l-0.9,0.8l2.5,3.1l-0.6,0.5l-2.5-3.1l-0.9,0.8L54.9,59.1z"/>
			<path id="Path_12" class="st0" d="M59.6,54.6c0.4-0.7,1.2-0.9,1.9-0.5c0.1,0,0.1,0.1,0.2,0.1c0.5,0.4,0.7,1.1,0.4,1.6l2.2,0.3
				l-0.6,0.7l-2.1-0.3L61.2,57l1.4,1.1l-0.5,0.6l-3.5-2.8L59.6,54.6z M60.1,55l-0.5,0.6l1.2,1l0.5-0.6c0.3-0.3,0.3-0.7,0-1
				c0,0-0.1-0.1-0.1-0.1c-0.3-0.3-0.7-0.2-1,0.1C60.1,54.9,60.1,54.9,60.1,55z"/>
			<path id="Path_13" class="st0" d="M66.1,50.7l-0.8,1.7l0.7,0.7l-0.3,0.7l-3.4-3.4l0.4-0.8l4.8,0.5l-0.3,0.7L66.1,50.7z
				 M63.3,50.4l1.6,1.6l0.6-1.3L63.3,50.4z"/>
			<path id="Path_14" class="st0" d="M64.6,42.9l4.5,0.9l-0.1,0.7L65.1,46l3.3,0.6l-0.1,0.7l-4.5-0.9l0.1-0.7l3.8-1.6l-3.3-0.6
				L64.6,42.9z"/>
			<path id="Path_15" class="st0" d="M65.2,38.3l0.1,1.8l1.3,0l0-1.6l0.6,0l0,1.6l1.4,0l-0.1-1.8l0.6,0l0.1,2.5l-4.5,0.1l-0.1-2.5
				L65.2,38.3z"/>
			<path id="Path_16" class="st0" d="M64.4,36.5l-0.7-3.1l0.6-0.1l0.3,1.2l3.8-0.9l0.2,0.7l-3.8,0.9l0.3,1.2L64.4,36.5z"/>
		</g>
		<g id="Group_2">
			<path id="Path_17" class="st0" d="M22.5,19.7l1-0.9l3.1,1.6l-1.1-3.3l1-0.9l3,3.5l-0.9,0.7l-1.8-2.1l1,2.8l-0.7,0.6l-2.6-1.4
				l1.8,2.1l-0.9,0.7L22.5,19.7z"/>
			<path id="Path_18" class="st0" d="M33.9,16.8l-1.6,0.7l0.1,0.9l-1.1,0.5l-0.2-4.9l1.2-0.5l3.3,3.7l-1.1,0.5L33.9,16.8z
				 M32.2,14.8l0.1,1.8l1.1-0.4L32.2,14.8z"/>
			<path id="Path_19" class="st0" d="M41.3,11.6l0.4,4.6l-1.1,0.1l-2.2-2.7l0.3,2.9l-1.1,0.1L37.2,12l1.1-0.1l2.2,2.7l-0.3-2.9
				L41.3,11.6z"/>
			<path id="Path_20" class="st0" d="M44.7,11.7l3.5,0.6l-0.2,0.9l-1.2-0.2l-0.7,3.7l-1.1-0.2l0.7-3.7l-1.2-0.2L44.7,11.7z"/>
			<path id="Path_21" class="st0" d="M53.2,14.2c0.8,0.2,1.2,1.1,1,1.8c0,0.1,0,0.1-0.1,0.2c-0.3,0.6-0.9,0.9-1.5,0.8l0.2,2.1
				l-1.2-0.5l-0.1-2l-0.2-0.1l-0.7,1.6l-1-0.5l2-4.2L53.2,14.2z M52.7,15l-0.6-0.3l-0.5,1l0.6,0.3c0.3,0.2,0.6,0.1,0.8-0.2
				C53.2,15.6,53.1,15.2,52.7,15C52.8,15,52.7,15,52.7,15z"/>
			<path id="Path_22" class="st0" d="M57.4,21.6l-1.3-1.1l-0.7,0.4l-0.9-0.8l4.3-2.4l1,0.9L58,23.2l-0.9-0.8L57.4,21.6z M58.4,19.1
				L56.9,20l0.9,0.8L58.4,19.1z"/>
		</g>
		<circle id="Ellipse_1" class="st0" cx="63.7" cy="26.9" r="1.8"/>
		<circle id="Ellipse_2" class="st0" cx="19.3" cy="26.9" r="1.8"/>
		<g id="Group_3">
			<path id="Path_23" class="st0" d="M41.6,70c-16.7,0-30.2-13.5-30.2-30.2S24.9,9.6,41.6,9.6s30.2,13.5,30.2,30.2l0,0
				C71.8,56.5,58.3,70,41.6,70z M41.6,10.4c-16.2,0-29.4,13.2-29.4,29.4s13.2,29.4,29.4,29.4S71,56,71,39.8l0,0
				C71,23.6,57.8,10.4,41.6,10.4z"/>
		</g>
		<g id="Group_4">
			<path id="Path_24" class="st0" d="M41.6,61.7c-12.1,0-21.9-9.8-21.9-21.9s9.8-21.9,21.9-21.9s21.9,9.8,21.9,21.9l0,0
				C63.5,51.9,53.7,61.7,41.6,61.7z M41.6,18.7c-11.7,0-21.1,9.5-21.1,21.1s9.5,21.1,21.1,21.1s21.1-9.5,21.1-21.1l0,0
				C62.7,28.1,53.3,18.7,41.6,18.7z"/>
		</g>
		<g id="Group_7">
			<path class="st1" d="M50.8,36.4l-6.7-3.9c-1.4-0.8-3.2-0.8-4.6,0l-6.7,3.9c-1.4,0.8-2.3,2.3-2.3,4v7.8c0,1.6,0.9,3.1,2.3,4
				l6.7,3.9c1.4,0.8,3.2,0.8,4.6,0l6.7-3.9c1.4-0.8,2.3-2.3,2.3-4v-7.8C53.1,38.7,52.2,37.2,50.8,36.4z"/>
			<path class="st0" d="M50.4,47.8l-4-8.9l0,0l0,0c0,0,0,0,0-0.1l0,0c0,0,0,0,0,0l0,0c0,0,0,0-0.1,0l0,0c0,0,0,0-0.1,0h0h0l0,0l0,0
				h0c0,0-0.1,0-0.1,0h0c0,0-0.1,0-0.1,0c0,0-0.1,0-0.1,0l0,0c0,0,0,0-0.1,0l0,0l0,0l-4.5,4.5l-2.7-2.8l0,0c0,0,0,0-0.1,0l0,0
				c0,0,0,0-0.1,0l0,0c0,0-0.1,0-0.1,0h0c0,0,0,0-0.1,0h0l0,0c0,0,0,0-0.1,0l0,0c0,0,0,0-0.1,0c0,0,0,0,0,0c0,0,0,0,0,0l0,0
				c0,0,0,0,0,0l0,0l-4.5,7c-0.1,0.2-0.1,0.4,0,0.5c0.1,0.2,0.4,0.3,0.7,0.2l4.3-2.7l2.2,3.8c0,0,0,0,0,0.1l0,0c0,0,0,0,0,0l0,0l0,0
				l0,0l0,0l0,0l0,0l0,0l0,0l0,0l0,0h0h0h0h0c0,0,0,0,0.1,0h0c0,0,0.1,0,0.1,0l0,0c0,0,0,0,0.1,0l0,0c0,0,0,0,0.1-0.1l3.3-4l5.3,2.9
				c0.2,0.1,0.4,0.1,0.6-0.1C50.4,48.2,50.5,48,50.4,47.8z M35.2,46.4l2.5-4l0.2,2.3L35.2,46.4z M40.4,47.6l-1.6-2.8l-0.2-2.7l2,2.1
				L40.4,47.6z M41.4,47.8l0.2-3.1l1.9,0.6L41.4,47.8z M44,44.4l-1.9-0.6l2.9-3L44,44.4z M44.9,44.7l1.2-4.2l2.8,6.4L44.9,44.7z"/>
			<path id="Path_28" class="st1" d="M45.8,38.9L45.8,38.9z"/>
			<g id="Group_6">
				<path id="Path_32" class="st0" d="M29.5,40c0-1.8,0.9-3.4,2.5-4.3l3.2-1.9c-1.6-0.1-5.7-0.6-6.6-1.8l-1.8,1.6v7.8l1.6,1.2
					l0.1,2.9l1.1,1.6L29.5,40z"/>
				<path id="Path_33" class="st0" d="M55,32c-0.9,1.3-4.9,1.7-6.6,1.8l3.2,1.9c1.5,0.9,2.5,2.5,2.5,4.3v6.9l1-1.5l0.1-2.9l1.6-1.2
					v-7.8L55,32z"/>
				<path id="Path_34" class="st0" d="M44.6,25.4l0.9-2.1l-6.7,1.4c-0.5,0.1-0.9,0.5-1,1.1l-0.1,0.7L35.2,27c-0.5,0.1-1,0.5-1.1,1.1
					l-0.6,2.5l1.6-1.1l2.1,0.6l-0.5,2.9l2.6-1.5c1.5-0.9,3.4-0.9,5,0l2.3,1.3L44.6,25.4z M40.1,26.9l-0.6-0.6l1.7-0.3L40.1,26.9z"/>
			</g>
		</g>
	</g>
</g>
</svg>
