<svg xmlns="http://www.w3.org/2000/svg" width="51.871" height="57.478" viewBox="0 0 51.871 57.478">
  <path id="Path_53" data-name="Path 53" d="M1011.778,385.509l-18.121-10.462a7.815,7.815,0,0,0-7.815,0l-18.121,10.462a7.814,7.814,0,0,0-3.907,6.768V413.2a7.814,7.814,0,0,0,3.907,6.768l18.121,10.462a7.815,7.815,0,0,0,7.815,0l18.121-10.462a7.815,7.815,0,0,0,3.907-6.768V392.277A7.815,7.815,0,0,0,1011.778,385.509Zm-33.852,26.612h-6.955v-2.782c.189-1.106.367-2.214.573-3.316.135-.718.313-1.428.486-2.209l6.356,1.634C978.23,407.714,978.078,409.917,977.926,412.121Zm1.025-8.52-6.32-2.061,2.326-5.91,5.918,2.951Zm2.743-6.657-4.763-3.721a20.461,20.461,0,0,1,4.723-4.733l4.021,4.607Zm10.678-4.443c-1.733,0-3.367.011-5-.016a.726.726,0,0,1-.539-.341c-.74-1.589-1.446-3.194-2.162-4.794a14.242,14.242,0,0,1,10-.02Q993.523,389.915,992.372,392.5Zm1.361.6,4.016-4.6a20.242,20.242,0,0,1,4.782,4.688l-4.731,3.766Zm4.755,5.48,5.906-2.952,2.374,5.907-6.278,2.342C999.821,402.108,999.164,400.371,998.488,398.581Zm10.04,13.54h-7.094c-.079-1.011-.149-2.023-.239-3.033-.1-1.144-.225-2.286-.347-3.51l6.54-1.785c.293,1.78.586,3.473.845,5.172.131.861.2,1.732.3,2.6Z" transform="translate(-963.814 -374)" fill="#fff"/>
</svg>
