<svg xmlns="http://www.w3.org/2000/svg" width="51.324" height="56.87" viewBox="0 0 51.324 56.87">
  <g id="Group_13" data-name="Group 13" transform="translate(-1215.606 -149.503)">
    <path id="Path_46" data-name="Path 46" d="M1247.273,171.72a3.432,3.432,0,0,1-3.432-3.432v-4.529h-1.424v.993a1.148,1.148,0,1,1-2.3,0v-.993h-6.965a2.011,2.011,0,0,0-2.008,2.009v24.341a2.011,2.011,0,0,0,2.008,2.009h16.226a2.011,2.011,0,0,0,2.009-2.009v-18.3l-.086-.093Zm-7.153-3.018a1.148,1.148,0,1,1,2.3,0v2.551a1.148,1.148,0,0,1-2.3,0Zm0,6.5a1.148,1.148,0,1,1,2.3,0v2.551a1.148,1.148,0,0,1-2.3,0Zm1.148,14.943a3.271,3.271,0,0,1-3.135-4.2l1.221-4.109a2,2,0,0,1,3.829,0l1.221,4.109A3.271,3.271,0,0,1,1241.268,190.146Z" fill="#fff"/>
    <path id="Path_47" data-name="Path 47" d="M1263.064,160.89l-17.93-10.351a7.733,7.733,0,0,0-7.732,0l-17.929,10.351a7.733,7.733,0,0,0-3.867,6.7v20.7a7.733,7.733,0,0,0,3.867,6.7l17.929,10.351a7.733,7.733,0,0,0,7.732,0l17.93-10.351a7.734,7.734,0,0,0,3.866-6.7v-20.7A7.734,7.734,0,0,0,1263.064,160.89Zm-8.949,29.219a4.734,4.734,0,0,1-4.734,4.734h-16.226a4.734,4.734,0,0,1-4.733-4.734V165.768a4.734,4.734,0,0,1,4.733-4.734h10.236a3.992,3.992,0,0,1,2.931,1.282l6.732,7.283a3.992,3.992,0,0,1,1.061,2.71Z" fill="#fff"/>
    <path id="Path_48" data-name="Path 48" d="M1241.268,185.393a1.529,1.529,0,1,0,1.53,1.529A1.529,1.529,0,0,0,1241.268,185.393Z" fill="#fff"/>
  </g>
</svg>
