<svg xmlns="http://www.w3.org/2000/svg" width="46.731" height="51.781" viewBox="0 0 46.731 51.781">
  <path id="Path_35" data-name="Path 35" d="M150.211,151.308l-16.325-9.425a7.04,7.04,0,0,0-7.041,0l-16.325,9.425a7.04,7.04,0,0,0-3.52,6.1v18.85a7.042,7.042,0,0,0,3.52,6.1l16.325,9.425a7.045,7.045,0,0,0,7.041,0l16.325-9.425a7.042,7.042,0,0,0,3.52-6.1V157.4A7.04,7.04,0,0,0,150.211,151.308Zm-9.5,20.5-2.866-4.172-7.475,10.882h0l-7.475-10.882-2.866,4.172h-7.057l9.906-14.455.017.025.017-.025,7.46,10.909,7.459-10.909.017.025.017-.025,9.906,14.455Z" transform="translate(-107 -140.939)" fill="#fff"/>
</svg>
