<svg xmlns="http://www.w3.org/2000/svg" width="51.44" height="57" viewBox="0 0 51.44 57">
  <g id="Group_15" data-name="Group 15" transform="translate(-689.609 -378)">
    <g id="Group_14" data-name="Group 14">
      <path id="Path_49" data-name="Path 49" d="M720.314,402.75h4.714l-2.357-6.045Z" fill="#fff"/>
      <path id="Path_50" data-name="Path 50" d="M724.7,410.417a4.568,4.568,0,0,0-1.458-1.031,4.268,4.268,0,0,0-1.772-.376,4.2,4.2,0,0,0-1.763.376,4.581,4.581,0,0,0-1.448,1.031,4.937,4.937,0,0,0-1.341,3.4,4.853,4.853,0,0,0,1.341,3.37A4.648,4.648,0,0,0,719.7,418.2a4.2,4.2,0,0,0,1.763.377,4.287,4.287,0,0,0,1.421-.24l-.877-.877,1.361-1.361,1.2,1.2c.041-.04.085-.077.126-.119a4.94,4.94,0,0,0,.98-5.234A4.908,4.908,0,0,0,724.7,410.417Z" fill="#fff"/>
      <path id="Path_51" data-name="Path 51" d="M709.267,409.8a2.888,2.888,0,0,0-.855-.659,2.358,2.358,0,0,0-1.088-.252h-2.573v5.937h2.573a2.359,2.359,0,0,0,1.088-.253,2.816,2.816,0,0,0,.855-.667,3.371,3.371,0,0,0,.576-.948,2.937,2.937,0,0,0,0-2.211A3.2,3.2,0,0,0,709.267,409.8Z" fill="#fff"/>
      <path id="Path_52" data-name="Path 52" d="M737.174,389.413,719.2,379.038a7.75,7.75,0,0,0-7.749,0l-17.97,10.375a7.751,7.751,0,0,0-3.875,6.712v20.75a7.751,7.751,0,0,0,3.875,6.712l17.97,10.375a7.75,7.75,0,0,0,7.749,0l17.971-10.375a7.753,7.753,0,0,0,3.875-6.712v-20.75A7.753,7.753,0,0,0,737.174,389.413Zm-25.118,22.421v.27a1.316,1.316,0,0,1-.018.216v.036q-.018.108-.027.207a.918.918,0,0,1-.045.207v.071a1.651,1.651,0,0,0-.09.342,4.661,4.661,0,0,1-.747,1.458,4.565,4.565,0,0,1-1.214,1.1.226.226,0,0,1-.09.054.226.226,0,0,0-.09.054l2.321,4.57h-2.033l-2.033-3.976q-.216.036-.432.054t-.468.018h-2.357v3.9h-1.925V407.192h4.282a5.4,5.4,0,0,1,2.825.774,4.494,4.494,0,0,1,1.961,2.573q.018.09.036.162a1.283,1.283,0,0,0,.054.162v.089a.691.691,0,0,1,.045.2q.009.108.027.216v.018a1.316,1.316,0,0,1,.018.216Zm.86-13.636-3.544,7.557-3.526-7.557-1.278,7.323h-1.961l2.447-13.206,4.318,9.086,4.336-9.086,2.447,13.206h-1.961Zm14.621,18.188a6.666,6.666,0,0,1-1.4,2.105c-.063.063-.132.119-.2.18l.672.671-1.361,1.361-.928-.928c-.094.045-.185.1-.282.137a6.58,6.58,0,0,1-5.137,0,6.6,6.6,0,0,1-3.49-3.526,6.5,6.5,0,0,1-.512-2.573,6.611,6.611,0,0,1,4-6.135,6.58,6.58,0,0,1,5.137,0,6.633,6.633,0,0,1,4.012,6.135A6.5,6.5,0,0,1,727.537,416.386Zm-1.448-10.9-.4-1.044h-6.027l-.414,1.044h-1.961l5.38-13.188,5.379,13.188Z" fill="#fff"/>
    </g>
  </g>
</svg>
