<svg xmlns="http://www.w3.org/2000/svg" width="51.323" height="56.872" viewBox="0 0 51.323 56.872">
  <g id="Group_12" data-name="Group 12" transform="translate(-964.088 -149.136)">
    <g id="Group_11" data-name="Group 11">
      <path id="Path_40" data-name="Path 40" d="M967.708,194.456a8.883,8.883,0,0,1-.732-.516A8.075,8.075,0,0,0,967.708,194.456Z" fill="#fff"/>
      <path id="Path_41" data-name="Path 41" d="M966.306,193.34a7.889,7.889,0,0,0,.6.538A7.163,7.163,0,0,1,966.306,193.34Z" fill="#fff"/>
      <path id="Path_42" data-name="Path 42" d="M977.4,187.87l-.233-.232-9.454,6.818c.083.052.159.114.245.164l1.707.986Z" fill="#fff"/>
      <path id="Path_43" data-name="Path 43" d="M1000.222,171.938c1.91-1.909,2.179-4.735.6-6.311s-4.4-1.306-6.311.6.46,2.1,2.036,3.672S998.313,173.847,1000.222,171.938Z" fill="#fff"/>
      <path id="Path_44" data-name="Path 44" d="M1011.545,160.524l-17.929-10.352a7.735,7.735,0,0,0-7.733,0l-17.929,10.352a7.731,7.731,0,0,0-3.866,6.7v20.7a7.73,7.73,0,0,0,2.218,5.417l10.08-7.269a1.31,1.31,0,0,1,.468-.815l.719-.58c-1.284-1.817-1.645-3.936.607-7.423l-.721-.179a4.091,4.091,0,0,0-2.786.3l-1.778.873a.585.585,0,0,1-.792-.764l1.482-3.326a3.713,3.713,0,0,1,2.456-2.081l8.852-2.3c8.608-7.916,17.526-11.821,20.568-8.779s-.863,11.96-8.778,20.568l-2.3,8.852a3.715,3.715,0,0,1-2.082,2.456l-3.326,1.483a.585.585,0,0,1-.763-.792l.873-1.779a4.087,4.087,0,0,0,.3-2.785l-.179-.722c-3.486,2.252-5.6,1.891-7.423.607l-.58.719a1.305,1.305,0,0,1-.749.458l-6,8.315,11.432,6.6a7.735,7.735,0,0,0,7.733,0l17.929-10.352a7.733,7.733,0,0,0,3.866-6.7v-20.7A7.733,7.733,0,0,0,1011.545,160.524Z" fill="#fff"/>
      <path id="Path_45" data-name="Path 45" d="M978.849,189.323l-.233-.233-7.408,7.408,1.741,1.005Z" fill="#fff"/>
    </g>
  </g>
</svg>
